v 0 0 2
v 1 0 2
v 0 0.7653668647301796 1.8477590650225735
v 1 0.7653668647301796 1.8477590650225735
v 0 1.414213562373095 1.4142135623730951
v 1 1.414213562373095 1.4142135623730951
v 0 1.8477590650225735 0.7653668647301797
v 1 1.8477590650225735 0.7653668647301797
v 0 2 1.2246467991473532e-16
v 1 2 1.2246467991473532e-16
v 0 1.8477590650225735 -0.7653668647301795
v 1 1.8477590650225735 -0.7653668647301795
v 0 1.4142135623730951 -1.414213562373095
v 1 1.4142135623730951 -1.414213562373095
v 0 0.7653668647301798 -1.8477590650225735
v 1 0.7653668647301798 -1.8477590650225735
v 0 2.4492935982947064e-16 -2
v 1 2.4492935982947064e-16 -2
v 0 -0.7653668647301793 -1.8477590650225737
v 1 -0.7653668647301793 -1.8477590650225737
v 0 -1.414213562373095 -1.4142135623730954
v 1 -1.414213562373095 -1.4142135623730954
v 0 -1.847759065022573 -0.7653668647301807
v 1 -1.847759065022573 -0.7653668647301807
v 0 -2 -3.6739403974420594e-16
v 1 -2 -3.6739403974420594e-16
v 0 -1.8477590650225733 0.76536686473018
v 1 -1.8477590650225733 0.76536686473018
v 0 -1.4142135623730954 1.4142135623730947
v 1 -1.4142135623730954 1.4142135623730947
v 0 -0.7653668647301808 1.847759065022573
v 1 -0.7653668647301808 1.847759065022573
v 0 0 0
v 1 0 0
vn 0 0 1
vn 0 0.3826834323650898 0.9238795325112867
vn 0 0.7071067811865475 0.7071067811865476
vn 0 0.9238795325112867 0.38268343236508984
vn 0 1 6.123233995736766e-17
vn 0 0.9238795325112867 -0.3826834323650897
vn 0 0.7071067811865476 -0.7071067811865475
vn 0 0.3826834323650899 -0.9238795325112867
vn 0 1.2246467991473532e-16 -1
vn 0 -0.38268343236508967 -0.9238795325112868
vn 0 -0.7071067811865475 -0.7071067811865477
vn 0 -0.9238795325112865 -0.38268343236509034
vn 0 -1 -1.8369701987210297e-16
vn 0 -0.9238795325112867 0.38268343236509006
vn 0 -0.7071067811865477 0.7071067811865474
vn 0 -0.3826834323650904 0.9238795325112865
vn -1 0 0
vn 1 0 0
f 1//1 2//1 3//2
f 2//1 4//2 3//2
f 3//2 4//2 5//3
f 4//2 6//3 5//3
f 5//3 6//3 7//4
f 6//3 8//4 7//4
f 7//4 8//4 9//5
f 8//4 10//5 9//5
f 9//5 10//5 11//6
f 10//5 12//6 11//6
f 11//6 12//6 13//7
f 12//6 14//7 13//7
f 13//7 14//7 15//8
f 14//7 16//8 15//8
f 15//8 16//8 17//9
f 16//8 18//9 17//9
f 17//9 18//9 19//10
f 18//9 20//10 19//10
f 19//10 20//10 21//11
f 20//10 22//11 21//11
f 21//11 22//11 23//12
f 22//11 24//12 23//12
f 23//12 24//12 25//13
f 24//12 26//13 25//13
f 25//13 26//13 27//14
f 26//13 28//14 27//14
f 27//14 28//14 29//15
f 28//14 30//15 29//15
f 29//15 30//15 31//16
f 30//15 32//16 31//16
f 31//16 32//16 1//1
f 32//16 2//1 1//1
f 33//17 1//17 3//17
f 33//17 3//17 5//17
f 33//17 5//17 7//17
f 33//17 7//17 9//17
f 33//17 9//17 11//17
f 33//17 11//17 13//17
f 33//17 13//17 15//17
f 33//17 15//17 17//17
f 33//17 17//17 19//17
f 33//17 19//17 21//17
f 33//17 21//17 23//17
f 33//17 23//17 25//17
f 33//17 25//17 27//17
f 33//17 27//17 29//17
f 33//17 29//17 31//17
f 33//17 31//17 1//17
f 34//18 4//18 2//18
f 34//18 6//18 4//18
f 34//18 8//18 6//18
f 34//18 10//18 8//18
f 34//18 12//18 10//18
f 34//18 14//18 12//18
f 34//18 16//18 14//18
f 34//18 18//18 16//18
f 34//18 20//18 18//18
f 34//18 22//18 20//18
f 34//18 24//18 22//18
f 34//18 26//18 24//18
f 34//18 28//18 26//18
f 34//18 30//18 28//18
f 34//18 32//18 30//18
f 34//18 2//18 32//18